<svg width="56" height="56" viewBox="0 0 56 56" fill="none" xmlns="http://www.w3.org/2000/svg">
<path d="M0 28C0 12.536 12.536 0 28 0C43.464 0 56 12.536 56 28C56 43.464 43.464 56 28 56C12.536 56 0 43.464 0 28Z" fill="url(#paint0_linear_561_1448)" fill-opacity="0.15"/>
<g clip-path="url(#clip0_561_1448)">
<path d="M28 23V16.46C28.913 16.806 29.753 17.339 30.465 18.05L33.949 21.536C34.661 22.247 35.194 23.087 35.54 24H29C28.448 24 28 23.551 28 23ZM29.27 35.48C28.457 36.293 28 37.395 28 38.545V40H29.455C30.605 40 31.707 39.543 32.52 38.73L39.327 31.923C40.224 31.026 40.224 29.57 39.327 28.673C38.43 27.776 36.974 27.776 36.077 28.673L29.27 35.48ZM26 38.545C26 36.853 26.659 35.262 27.855 34.066L34.662 27.259C35.051 26.87 35.504 26.571 35.993 26.358C35.989 26.238 35.984 26.119 35.976 25.999H29C27.346 25.999 26 24.653 26 22.999V16.024C25.839 16.013 25.678 16 25.515 16H21C18.243 16 16 18.243 16 21V35C16 37.757 18.243 40 21 40H26V38.545Z" fill="#FF9748"/>
</g>
<defs>
<linearGradient id="paint0_linear_561_1448" x1="84.8629" y1="-1.75" x2="-10.8052" y2="51.0797" gradientUnits="userSpaceOnUse">
<stop stop-color="#FF4C24"/>
<stop offset="1" stop-color="#FFE36C"/>
</linearGradient>
<clipPath id="clip0_561_1448">
<rect width="24" height="24" fill="white" transform="translate(16 16)"/>
</clipPath>
</defs>
</svg>
