<svg width="56" height="56" viewBox="0 0 56 56" fill="none" xmlns="http://www.w3.org/2000/svg">
<path d="M0 28C0 12.536 12.536 0 28 0C43.464 0 56 12.536 56 28C56 43.464 43.464 56 28 56C12.536 56 0 43.464 0 28Z" fill="url(#paint0_linear_561_1440)" fill-opacity="0.15"/>
<g clip-path="url(#clip0_561_1440)">
<path d="M40 24V22C40 19.24 37.76 17 35 17H21C18.24 17 16 19.24 16 22V24H40ZM35.5 19C36.33 19 37 19.67 37 20.5C37 21.33 36.33 22 35.5 22C34.67 22 34 21.33 34 20.5C34 19.67 34.67 19 35.5 19ZM31.5 19C32.33 19 33 19.67 33 20.5C33 21.33 32.33 22 31.5 22C30.67 22 30 21.33 30 20.5C30 19.67 30.67 19 31.5 19ZM27.5 19C28.33 19 29 19.67 29 20.5C29 21.33 28.33 22 27.5 22C26.67 22 26 21.33 26 20.5C26 19.67 26.67 19 27.5 19ZM40 26V34C40 36.76 37.76 39 35 39H21C18.24 39 16 36.76 16 34V26H40Z" fill="#FF9748"/>
</g>
<defs>
<linearGradient id="paint0_linear_561_1440" x1="84.8629" y1="-1.75" x2="-10.8052" y2="51.0797" gradientUnits="userSpaceOnUse">
<stop stop-color="#FF4C24"/>
<stop offset="1" stop-color="#FFE36C"/>
</linearGradient>
<clipPath id="clip0_561_1440">
<rect width="24" height="24" fill="white" transform="translate(16 16)"/>
</clipPath>
</defs>
</svg>
