<svg width="36" height="36" viewBox="0 0 36 36" fill="none" xmlns="http://www.w3.org/2000/svg">
<path d="M0 18C0 8.05888 8.05888 0 18 0C27.9411 0 36 8.05888 36 18C36 27.9411 27.9411 36 18 36C8.05888 36 0 27.9411 0 18Z" fill="url(#paint0_linear_561_612)" fill-opacity="0.15"/>
<path fill-rule="evenodd" clip-rule="evenodd" d="M9 18C9 14.4049 9 12.6073 9.85669 11.3126C10.2392 10.7344 10.7344 10.2392 11.3126 9.85669C12.6073 9 14.4049 9 18 9C21.5951 9 23.3927 9 24.6874 9.85669C25.2656 10.2392 25.7608 10.7344 26.1433 11.3126C27 12.6073 27 14.4049 27 18C27 21.5951 27 23.3927 26.1433 24.6874C25.7608 25.2656 25.2656 25.7608 24.6874 26.1433C23.3927 27 21.5951 27 18 27C14.4049 27 12.6073 27 11.3126 26.1433C10.7344 25.7608 10.2392 25.2656 9.85669 24.6874C9 23.3927 9 21.5951 9 18ZM22.6596 17.9996C22.6596 20.5729 20.5735 22.659 18.0002 22.659C15.4269 22.659 13.3408 20.5729 13.3408 17.9996C13.3408 15.4262 15.4269 13.3401 18.0002 13.3401C20.5735 13.3401 22.6596 15.4262 22.6596 17.9996ZM18.0002 21.0826C19.7029 21.0826 21.0832 19.7023 21.0832 17.9996C21.0832 16.2969 19.7029 14.9166 18.0002 14.9166C16.2975 14.9166 14.9172 16.2969 14.9172 17.9996C14.9172 19.7023 16.2975 21.0826 18.0002 21.0826ZM22.8438 14.2014C23.4485 14.2014 23.9387 13.7112 23.9387 13.1065C23.9387 12.5019 23.4485 12.0117 22.8438 12.0117C22.2392 12.0117 21.749 12.5019 21.749 13.1065C21.749 13.7112 22.2392 14.2014 22.8438 14.2014Z" fill="#FF9748"/>
<defs>
<linearGradient id="paint0_linear_561_612" x1="54.5547" y1="-1.125" x2="-6.94618" y2="32.8369" gradientUnits="userSpaceOnUse">
<stop stop-color="#FF4C24"/>
<stop offset="1" stop-color="#FFE36C"/>
</linearGradient>
</defs>
</svg>
