<svg width="56" height="56" viewBox="0 0 56 56" fill="none" xmlns="http://www.w3.org/2000/svg">
<path d="M0 28C0 12.536 12.536 0 28 0C43.464 0 56 12.536 56 28C56 43.464 43.464 56 28 56C12.536 56 0 43.464 0 28Z" fill="url(#paint0_linear_561_1456)" fill-opacity="0.15"/>
<g clip-path="url(#clip0_561_1456)">
<path d="M17.4203 16.0938C16.7922 16.3187 16.3094 16.8062 16.0891 17.4437C16.0047 17.6922 16 17.95 16 25.8906C16 33.8312 16.0047 34.0891 16.0891 34.3375C16.3094 34.9844 16.7969 35.4719 17.4391 35.6922C17.6922 35.7766 17.8797 35.7812 23.4766 35.7812H29.2469L29.3641 35.6312C29.5516 35.3828 29.5891 35.2984 29.5938 35.1391C29.5938 34.9328 27.5031 18.0109 27.4328 17.6875C27.2734 16.9234 26.6969 16.2953 25.9516 16.0703C25.7594 16.0094 25.0984 16 21.6953 16.0047C17.8891 16.0047 17.65 16.0141 17.4203 16.0938ZM23.3828 21.1281C23.5469 21.2359 23.6266 21.325 23.6922 21.4844C23.7719 21.6672 25.1406 28.5625 25.1406 28.7687C25.1406 28.9891 24.9953 29.2422 24.8125 29.3359C24.4891 29.5 24.0344 29.3687 23.8984 29.0687C23.8563 28.9844 23.725 28.4078 23.6031 27.7891L23.3781 26.6641H22.3516H21.325L21.1 27.7891C20.9781 28.4078 20.8469 28.9844 20.8047 29.0687C20.6688 29.3687 20.2141 29.5 19.8906 29.3359C19.7078 29.2422 19.5625 28.9891 19.5625 28.7687C19.5625 28.5766 20.9266 21.6859 21.0063 21.4844C21.0719 21.3203 21.2875 21.1141 21.4328 21.0812C21.4984 21.0672 21.5781 21.0484 21.6016 21.0344C21.6297 21.025 22.0094 21.025 22.4453 21.0297C23.1438 21.0391 23.2656 21.0484 23.3828 21.1281Z" fill="#FF9748"/>
<path d="M22.1641 22.4781C22.1406 22.5531 21.625 25.15 21.625 25.1969C21.625 25.2203 21.9531 25.2344 22.3516 25.2344C22.9047 25.2344 23.0781 25.2203 23.0781 25.1734C23.0734 25.1453 22.9516 24.5172 22.8063 23.7812L22.5344 22.4453L22.3609 22.4312C22.2484 22.4219 22.1781 22.4359 22.1641 22.4781Z" fill="#FF9748"/>
<path d="M29.1488 20.4157C29.2238 20.8657 30.9535 34.8719 30.9535 35.05C30.9535 35.3782 30.8645 35.7297 30.7051 36.0344C30.6066 36.2172 29.9973 36.9532 28.9566 38.1438L27.3535 39.9766L32.8191 39.9907C37.7645 40 38.3082 39.9953 38.5238 39.925C39.1754 39.7141 39.6863 39.2125 39.9113 38.561C40.0004 38.3032 40.0004 38.1016 40.0004 30.1563C40.0004 22.2953 39.9957 22.0047 39.9113 21.7563C39.7754 21.3578 39.6816 21.2032 39.3816 20.8938C39.1848 20.6875 39.0113 20.561 38.7676 20.4485L38.4301 20.2891L33.7754 20.275L29.1207 20.2657L29.1488 20.4157ZM35.3691 25.361C35.6129 25.5063 35.6973 25.7078 35.7254 26.1953L35.7488 26.6313L36.902 26.65C37.9566 26.6641 38.0691 26.6735 38.2098 26.7578C38.4254 26.8891 38.5473 27.1 38.5473 27.3485C38.5473 27.7094 38.2941 27.9672 37.891 28.0235L37.6754 28.0516L37.5441 28.4125C37.2348 29.2563 36.766 30.1047 36.227 30.7891L35.9691 31.1172L36.166 31.3C36.2785 31.3985 36.677 31.7219 37.052 32.0125C37.427 32.3032 37.7598 32.5985 37.7879 32.6641C37.9332 32.9782 37.802 33.4094 37.5207 33.5547C37.3566 33.6391 37.0379 33.6485 36.8973 33.5735C36.7754 33.5078 35.8988 32.8282 35.4113 32.4203C35.2145 32.2563 35.041 32.125 35.027 32.125C35.0129 32.125 34.8301 32.2703 34.6285 32.4438C34.0988 32.8985 33.3395 33.5078 33.2176 33.5688C33.0723 33.6485 32.7535 33.6391 32.5895 33.5547C32.3082 33.4094 32.177 32.9782 32.3223 32.6641C32.3504 32.5985 32.6645 32.3125 33.0113 32.0313C33.3629 31.7547 33.752 31.4313 33.8738 31.3188L34.0988 31.1172L33.8598 30.8125C33.3957 30.2266 32.8285 29.1813 32.5613 28.4219L32.4301 28.0516L32.2145 28.0235C31.816 27.9672 31.5629 27.7094 31.5629 27.3485C31.5629 27.1 31.6848 26.8891 31.9004 26.7578C32.041 26.6735 32.1535 26.6641 33.1848 26.65L34.3145 26.6313L34.3379 26.1953C34.366 25.7125 34.441 25.5344 34.6848 25.3703C34.8582 25.2578 35.1816 25.2532 35.3691 25.361Z" fill="#FF9748"/>
<path d="M33.8594 28.0657C33.8594 28.1078 34.0234 28.4735 34.1969 28.8203C34.4219 29.2703 34.9797 30.1188 35.0406 30.1C35.1391 30.0672 35.7109 29.1953 35.9688 28.6797C36.1234 28.3703 36.25 28.0985 36.25 28.0797C36.25 28.061 35.7109 28.0469 35.0547 28.0469C34.3984 28.0469 33.8594 28.0563 33.8594 28.0657Z" fill="#FF9748"/>
<path d="M24.2031 37.2485C24.2031 37.2813 24.2359 37.5625 24.2734 37.8672C24.3672 38.5703 24.5453 38.9875 24.9203 39.3625C25.1359 39.5781 25.5484 39.85 25.5812 39.8031C25.5906 39.7938 26.125 39.2031 26.7766 38.486L27.9578 37.1875H26.0781C24.5781 37.1875 24.2031 37.2016 24.2031 37.2485Z" fill="#FF9748"/>
</g>
<defs>
<linearGradient id="paint0_linear_561_1456" x1="84.8629" y1="-1.75" x2="-10.8052" y2="51.0797" gradientUnits="userSpaceOnUse">
<stop stop-color="#FF4C24"/>
<stop offset="1" stop-color="#FFE36C"/>
</linearGradient>
<clipPath id="clip0_561_1456">
<rect width="24" height="24" fill="white" transform="translate(16 16)"/>
</clipPath>
</defs>
</svg>
