<svg width="36" height="36" viewBox="0 0 36 36" fill="none" xmlns="http://www.w3.org/2000/svg">
<path d="M0 18C0 8.05888 8.05888 0 18 0C27.9411 0 36 8.05888 36 18C36 27.9411 27.9411 36 18 36C8.05888 36 0 27.9411 0 18Z" fill="url(#paint0_linear_561_618)" fill-opacity="0.15"/>
<path d="M9 11.0909C9 10.4848 9.20271 9.98484 9.60811 9.59091C10.0135 9.19696 10.5405 9 11.1892 9C11.8263 9 12.3417 9.19393 12.7355 9.58182C13.1409 9.98182 13.3436 10.503 13.3436 11.1455C13.3436 11.7273 13.1467 12.2121 12.7529 12.6C12.3475 13 11.8147 13.2 11.1544 13.2H11.1371C10.5 13.2 9.98456 13 9.59073 12.6C9.19691 12.2 9 11.697 9 11.0909ZM9.22587 27V14.8545H13.083V27H9.22587ZM15.2201 27H19.0772V20.2182C19.0772 19.7939 19.1236 19.4667 19.2162 19.2364C19.3784 18.8242 19.6245 18.4757 19.9546 18.1909C20.2847 17.9061 20.6988 17.7636 21.1969 17.7636C22.4942 17.7636 23.1429 18.6788 23.1429 20.5091V27H27V20.0364C27 18.2424 26.5946 16.8818 25.7838 15.9545C24.973 15.0273 23.9015 14.5636 22.5695 14.5636C21.0753 14.5636 19.9112 15.2364 19.0772 16.5818V16.6182H19.0598L19.0772 16.5818V14.8545H15.2201C15.2432 15.2424 15.2548 16.4485 15.2548 18.4727C15.2548 20.497 15.2432 23.3394 15.2201 27Z" fill="#FF9748"/>
<defs>
<linearGradient id="paint0_linear_561_618" x1="54.5547" y1="-1.125" x2="-6.94618" y2="32.8369" gradientUnits="userSpaceOnUse">
<stop stop-color="#FF4C24"/>
<stop offset="1" stop-color="#FFE36C"/>
</linearGradient>
</defs>
</svg>
