<svg width="24" height="18" viewBox="0 0 24 18" fill="none" xmlns="http://www.w3.org/2000/svg">
<path d="M1.66884 0.661037C0.970399 0.773537 0.328212 1.35479 0.075087 2.09072C-0.0327255 2.40947 -0.0233505 3.05166 0.0891495 3.38916C0.576649 4.8001 2.29227 5.27822 3.45477 4.32666C4.20477 3.7126 4.40165 2.5501 3.90477 1.65947C3.62352 1.15791 3.0329 0.7501 2.45634 0.65635C2.14227 0.604787 1.99227 0.604787 1.66884 0.661037Z" fill="#010101"/>
<path d="M7.23281 1.17201C6.77813 1.26576 6.36094 1.60326 6.14531 2.05795C6.04219 2.27826 6.02344 2.38607 6.02344 2.71888C6.02344 3.07513 6.04219 3.15482 6.17813 3.43138C6.35156 3.78763 6.5625 3.99388 6.9375 4.16732L7.19531 4.2892L14.8594 4.30326C20.5078 4.31263 22.5891 4.30326 22.7812 4.26576C23.5078 4.11107 24 3.49232 24 2.71888C24 2.08138 23.6906 1.58451 23.1188 1.30326L22.8047 1.14857L15.1172 1.14388C10.8891 1.1392 7.34063 1.15326 7.23281 1.17201Z" fill="#010101"/>
<path d="M1.64536 6.94239C0.937549 7.07832 0.328174 7.63614 0.0750488 8.37207C-0.0233887 8.66739 -0.0233887 9.33301 0.0750488 9.62832C0.417236 10.6361 1.37817 11.2314 2.39536 11.0768C3.45005 10.9127 4.17661 10.0643 4.17661 9.0002C4.17661 7.64551 2.98599 6.67989 1.64536 6.94239Z" fill="#010101"/>
<path d="M7.20469 7.45809C6.75469 7.5659 6.35156 7.89872 6.14531 8.33934C6.04219 8.55965 6.02344 8.66747 6.02344 9.00028C6.02344 9.33309 6.04219 9.4409 6.14531 9.66122C6.30469 9.99872 6.59531 10.2893 6.93281 10.4487L7.19531 10.5706L14.9016 10.5847C23.3156 10.5987 22.8656 10.6081 23.2969 10.3362C24.2344 9.74559 24.2344 8.25497 23.2969 7.66434C22.8656 7.39247 23.3156 7.40653 15.0047 7.41122C10.7531 7.4159 7.30313 7.43465 7.20469 7.45809Z" fill="#010101"/>
<path d="M1.56102 13.2424C0.857899 13.4346 0.323524 13.9268 0.0891495 14.6158C-0.0233505 14.9486 -0.0327255 15.5955 0.075087 15.9096C0.417274 16.9127 1.37352 17.5033 2.40009 17.3533C3.20165 17.2315 3.83446 16.6877 4.10165 15.8955C4.20946 15.5674 4.20009 14.958 4.0829 14.6158C3.71727 13.5611 2.61102 12.9611 1.56102 13.2424Z" fill="#010101"/>
<path d="M7.09245 13.7766C5.7237 14.25 5.62057 16.1156 6.93307 16.7297L7.19557 16.8516H15.0003H22.8049L23.119 16.6969C24.4221 16.0547 24.2487 14.1234 22.8518 13.7531C22.6596 13.7016 21.2206 13.6875 14.9768 13.6875C7.7487 13.6922 7.32213 13.6969 7.09245 13.7766Z" fill="#010101"/>
</svg>
