<svg width="30" height="30" viewBox="0 0 30 30" fill="none" xmlns="http://www.w3.org/2000/svg">
<path d="M0 15C0 6.71573 6.71573 0 15 0C23.2843 0 30 6.71573 30 15C30 23.2843 23.2843 30 15 30C6.71573 30 0 23.2843 0 15Z" fill="#FF9748"/>
<path d="M11 22V20.708C11.369 19.9393 11.8542 19.2503 12.4556 18.6407C13.0569 18.0178 13.713 17.4016 14.4237 16.792C14.9567 16.3282 15.3941 15.9439 15.7358 15.6391C16.0774 15.3344 16.344 15.0627 16.5353 14.8242C16.7267 14.5856 16.8633 14.3405 16.9453 14.0887C17.0273 13.8369 17.0683 13.5255 17.0683 13.1544C17.0683 11.922 16.262 11.3058 14.6492 11.3058C14.1025 11.3058 13.5558 11.3654 13.0091 11.4847C12.4761 11.5907 11.9636 11.7365 11.4715 11.922V9.55657C11.9909 9.3843 12.5923 9.25178 13.2756 9.15902C13.9727 9.05301 14.6355 9 15.2642 9C16.795 9 17.9431 9.37105 18.7084 10.1131C19.4875 10.842 19.877 11.8359 19.877 13.0948C19.877 13.9694 19.6515 14.7181 19.2005 15.341C18.7631 15.9506 18.1891 16.5535 17.4784 17.1498C16.918 17.6269 16.385 18.0907 15.8793 18.5413C15.3736 18.9786 14.9499 19.4424 14.6082 19.9327H20V22H11Z" fill="white"/>
</svg>
