<svg width="30" height="30" viewBox="0 0 30 30" fill="none" xmlns="http://www.w3.org/2000/svg">
<path d="M0 15C0 6.71573 6.71573 0 15 0C23.2843 0 30 6.71573 30 15C30 23.2843 23.2843 30 15 30C6.71573 30 0 23.2843 0 15Z" fill="#FF9748"/>
<path d="M15.0198 22C13.3532 22 12.0966 21.5954 11.25 20.7861C10.4167 19.9769 10 18.7304 10 17.0467V14.3449C10 13.3007 10.2249 12.3805 10.6746 11.5843C11.1376 10.7751 11.7923 10.1421 12.6389 9.68524C13.4854 9.22841 14.4841 9 15.6349 9C16.2963 9 16.8717 9.03916 17.3611 9.11747C17.8505 9.19578 18.3201 9.31325 18.7698 9.46988V11.741C17.9365 11.4147 16.9511 11.2515 15.8135 11.2515C14.7288 11.2515 13.9087 11.4864 13.3532 11.9563C12.7976 12.4262 12.5198 13.0462 12.5198 13.8163V14.4232C12.9431 14.123 13.4392 13.9011 14.0079 13.7575C14.5767 13.6009 15.0992 13.5226 15.5754 13.5226C17.0966 13.5226 18.2143 13.8881 18.9286 14.619C19.6429 15.3499 20 16.381 20 17.7123C20 18.5477 19.8214 19.2917 19.4643 19.9443C19.1204 20.5838 18.5847 21.0863 17.8571 21.4518C17.1296 21.8173 16.1839 22 15.0198 22ZM15.0397 20.0422C15.8995 20.0422 16.541 19.8399 16.9643 19.4352C17.3876 19.0306 17.5992 18.489 17.5992 17.8102C17.5992 17.0793 17.414 16.5181 17.0437 16.1265C16.6733 15.7349 16.0185 15.5392 15.0794 15.5392C14.6429 15.5392 14.1997 15.6175 13.75 15.7741C13.3003 15.9307 12.8902 16.133 12.5198 16.381V17.5753C12.5198 19.2199 13.3598 20.0422 15.0397 20.0422Z" fill="white"/>
</svg>
