<svg width="30" height="30" viewBox="0 0 30 30" fill="none" xmlns="http://www.w3.org/2000/svg">
<path d="M0 15C0 6.71573 6.71573 0 15 0C23.2843 0 30 6.71573 30 15C30 23.2843 23.2843 30 15 30C6.71573 30 0 23.2843 0 15Z" fill="#FF9748"/>
<path d="M14.86 22C14.4673 22 14.0339 21.9735 13.5598 21.9205C13.0993 21.8807 12.6456 21.8145 12.1986 21.7217C11.7652 21.6289 11.386 21.5163 11.0609 21.3838V19.0581C11.535 19.2569 12.0903 19.4159 12.7269 19.5352C13.377 19.6412 13.9594 19.6942 14.474 19.6942C15.395 19.6942 16.079 19.5484 16.526 19.2569C16.9865 18.9653 17.2167 18.4684 17.2167 17.7661C17.2167 17.1432 17.0609 16.686 16.7494 16.3945C16.4515 16.103 15.8488 15.9572 14.9413 15.9572H11V14.4465L11.3454 9H19.1264L18.9233 11.0673H13.6817L13.4989 13.8899H15.4695C17.0542 13.8899 18.2054 14.2278 18.9233 14.9037C19.6411 15.5795 20 16.5668 20 17.8654C20 19.1244 19.5666 20.1315 18.6998 20.8868C17.8465 21.6289 16.5666 22 14.86 22Z" fill="white"/>
</svg>
