<svg width="30" height="30" viewBox="0 0 30 30" fill="none" xmlns="http://www.w3.org/2000/svg">
<path d="M0 15C0 6.71573 6.71573 0 15 0C23.2843 0 30 6.71573 30 15C30 23.2843 23.2843 30 15 30C6.71573 30 0 23.2843 0 15Z" fill="#FF9748"/>
<path d="M14.1587 21V10.5679C14.048 10.6214 13.8942 10.6802 13.6974 10.7444C13.5129 10.7979 13.31 10.8621 13.0886 10.937C12.8672 11.0012 12.6581 11.0654 12.4613 11.1296C12.2645 11.1831 12.1107 11.2313 12 11.2741V9.44444C12.1476 9.38025 12.3444 9.29465 12.5904 9.18765C12.8487 9.08066 13.1193 8.96296 13.4022 8.83457C13.6851 8.70617 13.9496 8.56708 14.1956 8.41728C14.4539 8.26749 14.6507 8.1284 14.786 8H17V21H14.1587Z" fill="white"/>
</svg>
