<svg width="30" height="30" viewBox="0 0 30 30" fill="none" xmlns="http://www.w3.org/2000/svg">
<path d="M0 15C0 6.71573 6.71573 0 15 0C23.2843 0 30 6.71573 30 15C30 23.2843 23.2843 30 15 30C6.71573 30 0 23.2843 0 15Z" fill="#FF9748"/>
<path d="M14.8486 22C14.461 22 14.0267 21.9739 13.5457 21.9217C13.0646 21.8695 12.5969 21.7977 12.1425 21.7063C11.6882 21.615 11.3073 21.5105 11 21.3931V19.0828C11.5479 19.3047 12.1158 19.4679 12.7038 19.5723C13.3051 19.6767 13.8864 19.7289 14.4477 19.7289C15.3964 19.7289 16.098 19.6049 16.5523 19.3569C17.02 19.0959 17.2539 18.626 17.2539 17.9473C17.2539 17.386 17.0468 16.988 16.6325 16.753C16.2316 16.5181 15.6503 16.4006 14.8886 16.4006H12.8641L13.0646 14.4623H14.7483C15.5234 14.4623 16.0913 14.3384 16.4521 14.0904C16.8129 13.8293 16.9933 13.4247 16.9933 12.8765C16.9933 12.3283 16.7862 11.9237 16.3719 11.6627C15.971 11.3886 15.3229 11.2515 14.4276 11.2515C13.853 11.2515 13.2784 11.3102 12.7038 11.4277C12.1425 11.5452 11.6481 11.6953 11.2205 11.878V9.62651C11.6481 9.44378 12.196 9.29367 12.8641 9.1762C13.5457 9.05873 14.2205 9 14.8886 9C16.4922 9 17.7016 9.32631 18.5167 9.97892C19.3318 10.6315 19.7394 11.4734 19.7394 12.5045C19.7394 13.118 19.5924 13.6988 19.2984 14.247C19.0178 14.7821 18.5768 15.1737 17.9755 15.4217C18.6704 15.6305 19.1782 15.9829 19.4989 16.4789C19.833 16.9618 20 17.5427 20 18.2214C20 19.0828 19.7795 19.7942 19.3385 20.3554C18.9109 20.9167 18.3096 21.3343 17.5345 21.6084C16.7728 21.8695 15.8775 22 14.8486 22Z" fill="white"/>
</svg>
