<svg width="40" height="40" viewBox="0 0 40 40" fill="none" xmlns="http://www.w3.org/2000/svg">
<path d="M0 20C0 8.95431 8.95431 0 20 0C31.0457 0 40 8.95431 40 20C40 31.0457 31.0457 40 20 40C8.95431 40 0 31.0457 0 20Z" fill="#FF9748"/>
<path d="M18.808 29.44V13.84C18.664 13.92 18.464 14.008 18.208 14.104C17.968 14.184 17.704 14.28 17.416 14.392C17.128 14.488 16.856 14.584 16.6 14.68C16.344 14.76 16.144 14.832 16 14.896V12.16C16.192 12.064 16.448 11.936 16.768 11.776C17.104 11.616 17.456 11.44 17.824 11.248C18.192 11.056 18.536 10.848 18.856 10.624C19.192 10.4 19.448 10.192 19.624 10H22.504V29.44H18.808Z" fill="white"/>
</svg>
