<svg width="40" height="40" viewBox="0 0 40 40" fill="none" xmlns="http://www.w3.org/2000/svg">
<path d="M0 20C0 8.95431 8.95431 0 20 0C31.0457 0 40 8.95431 40 20C40 31.0457 31.0457 40 20 40C8.95431 40 0 31.0457 0 20Z" fill="#FF9748"/>
<path d="M19.32 29.312C18.7787 29.312 18.1813 29.2747 17.528 29.2C16.8933 29.144 16.268 29.0507 15.652 28.92C15.0547 28.7893 14.532 28.6307 14.084 28.444V25.168C14.7373 25.448 15.5027 25.672 16.38 25.84C17.276 25.9893 18.0787 26.064 18.788 26.064C20.0573 26.064 21 25.8587 21.616 25.448C22.2507 25.0373 22.568 24.3373 22.568 23.348C22.568 22.4707 22.3533 21.8267 21.924 21.416C21.5133 21.0053 20.6827 20.8 19.432 20.8H14V18.672L14.476 11H25.2L24.92 13.912H17.696L17.444 17.888H20.16C22.344 17.888 23.9307 18.364 24.92 19.316C25.9093 20.268 26.404 21.6587 26.404 23.488C26.404 25.2613 25.8067 26.68 24.612 27.744C23.436 28.7893 21.672 29.312 19.32 29.312Z" fill="white"/>
</svg>
