<svg width="40" height="40" viewBox="0 0 40 40" fill="none" xmlns="http://www.w3.org/2000/svg">
<path d="M0 20C0 8.95431 8.95431 0 20 0C31.0457 0 40 8.95431 40 20C40 31.0457 31.0457 40 20 40C8.95431 40 0 31.0457 0 20Z" fill="#FF9748"/>
<path d="M20.084 29.592C17.732 29.592 15.9587 29.0133 14.764 27.856C13.588 26.6987 13 24.916 13 22.508V18.644C13 17.1507 13.3173 15.8347 13.952 14.696C14.6053 13.5387 15.5293 12.6333 16.724 11.98C17.9187 11.3267 19.328 11 20.952 11C21.8853 11 22.6973 11.056 23.388 11.168C24.0787 11.28 24.7413 11.448 25.376 11.672V14.92C24.2 14.4533 22.8093 14.22 21.204 14.22C19.6733 14.22 18.516 14.556 17.732 15.228C16.948 15.9 16.556 16.7867 16.556 17.888V18.756C17.1533 18.3267 17.8533 18.0093 18.656 17.804C19.4587 17.58 20.196 17.468 20.868 17.468C23.0147 17.468 24.592 17.9907 25.6 19.036C26.608 20.0813 27.112 21.556 27.112 23.46C27.112 24.6547 26.86 25.7187 26.356 26.652C25.8707 27.5667 25.1147 28.2853 24.088 28.808C23.0613 29.3307 21.7267 29.592 20.084 29.592ZM20.112 26.792C21.3253 26.792 22.2307 26.5027 22.828 25.924C23.4253 25.3453 23.724 24.5707 23.724 23.6C23.724 22.5547 23.4627 21.752 22.94 21.192C22.4173 20.632 21.4933 20.352 20.168 20.352C19.552 20.352 18.9267 20.464 18.292 20.688C17.6573 20.912 17.0787 21.2013 16.556 21.556V23.264C16.556 25.616 17.7413 26.792 20.112 26.792Z" fill="white"/>
</svg>
