<svg width="40" height="40" viewBox="0 0 40 40" fill="none" xmlns="http://www.w3.org/2000/svg">
<path d="M0 20C0 8.95431 8.95431 0 20 0C31.0457 0 40 8.95431 40 20C40 31.0457 31.0457 40 20 40C8.95431 40 0 31.0457 0 20Z" fill="#FF9748"/>
<path d="M19.376 29.592C18.8347 29.592 18.228 29.5547 17.556 29.48C16.884 29.4053 16.2307 29.3027 15.596 29.172C14.9613 29.0413 14.4293 28.892 14 28.724V25.42C14.7653 25.7373 15.5587 25.9707 16.38 26.12C17.22 26.2693 18.032 26.344 18.816 26.344C20.1413 26.344 21.1213 26.1667 21.756 25.812C22.4093 25.4387 22.736 24.7667 22.736 23.796C22.736 22.9933 22.4467 22.424 21.868 22.088C21.308 21.752 20.496 21.584 19.432 21.584H16.604L16.884 18.812H19.236C20.3187 18.812 21.112 18.6347 21.616 18.28C22.12 17.9067 22.372 17.328 22.372 16.544C22.372 15.76 22.0827 15.1813 21.504 14.808C20.944 14.416 20.0387 14.22 18.788 14.22C17.9853 14.22 17.1827 14.304 16.38 14.472C15.596 14.64 14.9053 14.8547 14.308 15.116V11.896C14.9053 11.6347 15.6707 11.42 16.604 11.252C17.556 11.084 18.4987 11 19.432 11C21.672 11 23.3613 11.4667 24.5 12.4C25.6387 13.3333 26.208 14.5373 26.208 16.012C26.208 16.8893 26.0027 17.72 25.592 18.504C25.2 19.2693 24.584 19.8293 23.744 20.184C24.7147 20.4827 25.424 20.9867 25.872 21.696C26.3387 22.3867 26.572 23.2173 26.572 24.188C26.572 25.42 26.264 26.4373 25.648 27.24C25.0507 28.0427 24.2107 28.64 23.128 29.032C22.064 29.4053 20.8133 29.592 19.376 29.592Z" fill="white"/>
</svg>
