<svg width="40" height="40" viewBox="0 0 40 40" fill="none" xmlns="http://www.w3.org/2000/svg">
<path d="M0 20C0 8.95431 8.95431 0 20 0C31.0457 0 40 8.95431 40 20C40 31.0457 31.0457 40 20 40C8.95431 40 0 31.0457 0 20Z" fill="#FF9748"/>
<path d="M14 29.312V27.492C14.504 26.4093 15.1667 25.4387 15.988 24.58C16.8093 23.7027 17.7053 22.8347 18.676 21.976C19.404 21.3227 20.0013 20.7813 20.468 20.352C20.9347 19.9227 21.2987 19.54 21.56 19.204C21.8213 18.868 22.008 18.5227 22.12 18.168C22.232 17.8133 22.288 17.3747 22.288 16.852C22.288 15.116 21.1867 14.248 18.984 14.248C18.2373 14.248 17.4907 14.332 16.744 14.5C16.016 14.6493 15.316 14.8547 14.644 15.116V11.784C15.3533 11.5413 16.1747 11.3547 17.108 11.224C18.06 11.0747 18.9653 11 19.824 11C21.9147 11 23.4827 11.5227 24.528 12.568C25.592 13.5947 26.124 14.9947 26.124 16.768C26.124 18 25.816 19.0547 25.2 19.932C24.6027 20.7907 23.8187 21.64 22.848 22.48C22.0827 23.152 21.3547 23.8053 20.664 24.44C19.9733 25.056 19.3947 25.7093 18.928 26.4H26.292V29.312H14Z" fill="white"/>
</svg>
